<?xml version="1.0" encoding="UTF-8"?> <svg xmlns="http://www.w3.org/2000/svg" xmlns:xlink="http://www.w3.org/1999/xlink" id="uuid-1336ae06-d630-48bd-8902-091cf6c88d3b" data-name="Vrstva 1" viewBox="0 0 154 47.99383"><defs><style> .uuid-dce0615b-be24-4168-a75a-ff39dbc2608e { fill: #fff; } .uuid-b9cccd5a-3893-4d35-868b-3076e3b44695 { clip-path: url(#uuid-cb97ce1e-ef3b-45cc-bb06-902b5e7c100c); } .uuid-06214ce8-204c-44f8-9440-2e1907ea64ed { fill: url(#uuid-262cc6a8-f16b-4149-a3c0-5b02c435b53d); } .uuid-23784e4b-ed31-4437-b87b-1cfba61fa8c2 { fill: #90b33d; } .uuid-00e3bbda-855b-415a-b5a6-cc9ea1869f6d { fill: #f8b500; } .uuid-d150ce27-23ed-46a9-ae55-91f84f5c850d { fill: none; } </style><clipPath id="uuid-cb97ce1e-ef3b-45cc-bb06-902b5e7c100c"><path class="uuid-d150ce27-23ed-46a9-ae55-91f84f5c850d" d="M1.18462,39.46884C.53308,39.46884,0,39.99769,0,40.65346v6.15576C0,47.46077,.52885,47.99383,1.18462,47.99383H7.34038c.65154,0,1.18462-.52885,1.18462-1.18461v-6.15577c0-.65154-.52885-1.18462-1.18462-1.18462H1.18462Zm10.12,0c-.65577,0-1.18462,.52885-1.18462,1.18462v6.15576c0,.65154,.52885,1.18461,1.18462,1.18461h6.15154c.65154,0,1.18462-.52885,1.18462-1.18461v-6.15577c0-.65154-.52885-1.18462-1.18462-1.18462h-6.15154Zm10.11577,0c-.65577,0-1.18462,.52885-1.18462,1.18462v6.15576c0,.65154,.52885,1.18461,1.18462,1.18461h6.15577c.65154,0,1.18462-.52885,1.18462-1.18461v-6.15577c0-.65154-.52885-1.18462-1.18462-1.18462h-6.15577Zm10.12,0c-.65577,0-1.18462,.52885-1.18462,1.18462v6.15576c0,.65154,.52885,1.18461,1.18462,1.18461h6.15577c.65154,0,1.18462-.52885,1.18462-1.18461v-6.15577c0-.65154-.52885-1.18462-1.18462-1.18462h-6.15577ZM1.18462,29.34884C.53308,29.34884,0,29.87769,0,30.53346v6.15577C0,37.34077,.52885,37.87385,1.18462,37.87385H7.34038c.65154,0,1.18462-.52885,1.18462-1.18462v-6.15577c0-.65577-.52885-1.18462-1.18462-1.18462H1.18462Zm10.12,0c-.65577,0-1.18462,.52885-1.18462,1.18462v6.15577c0,.65154,.52885,1.18462,1.18462,1.18462h6.15154c.65154,0,1.18462-.52885,1.18462-1.18462v-6.15577c0-.65577-.52885-1.18462-1.18462-1.18462h-6.15154Zm10.11577,0c-.65577,0-1.18462,.52885-1.18462,1.18462v6.15577c0,.65154,.52885,1.18462,1.18462,1.18462h6.15577c.65154,0,1.18462-.52885,1.18462-1.18462v-6.15577c0-.65577-.52885-1.18462-1.18462-1.18462h-6.15577Zm10.12,0c-.65577,0-1.18462,.52885-1.18462,1.18462v6.15577c0,.65154,.52885,1.18462,1.18462,1.18462h6.15577c.65154,0,1.18462-.52885,1.18462-1.18462v-6.15577c0-.65577-.52885-1.18462-1.18462-1.18462h-6.15577Z"></path></clipPath><linearGradient id="uuid-262cc6a8-f16b-4149-a3c0-5b02c435b53d" data-name="Nepojmenovaný přechod 2" x1="-44.57976" y1="-353.15858" x2="-44.1567" y2="-353.15858" gradientTransform="translate(-4057.68723 -32414.09601) rotate(-180) scale(91.8929)" gradientUnits="userSpaceOnUse"><stop offset="0" stop-color="#91b33d"></stop><stop offset="1" stop-color="#9ac13a"></stop></linearGradient></defs><g class="uuid-b9cccd5a-3893-4d35-868b-3076e3b44695"><rect class="uuid-06214ce8-204c-44f8-9440-2e1907ea64ed" y="29.34884" width="38.87654" height="18.64077"></rect></g><path class="uuid-00e3bbda-855b-415a-b5a6-cc9ea1869f6d" d="M13.65269,26.31538l13.915-13.22962c1.265,1.13384,2.70346,2.07731,4.26884,2.79231l-3.11808,10.43731H13.65269Zm25.22385,0v-8.90577c-1.10423,0-2.17885-.11-3.22385-.30884-.87154,3.00808-1.78962,6.18115-2.66961,9.21461h5.89346Zm0-14.17308V.45692h-11.68538c0,6.45192,5.23346,11.68538,11.68538,11.68538M7.37,26.31538L25.82885,11.27923c-1.17192-1.41308-2.11962-3.02077-2.78808-4.76808L0,12.54846v13.76692H7.37ZM21.92384,.45269H0V7.9623c6.875-1.33692,16.39846-3.23654,22.21154-4.4-.18615-1.00693-.28769-2.04346-.28769-3.10962"></path><path class="uuid-23784e4b-ed31-4437-b87b-1cfba61fa8c2" d="M70.86115,15.56923c-1.07038-.49077-2.13654-.74885-3.19846-.77846,1.00693-.06769,1.98423-.39346,2.93615-.96461,.95192-.57538,1.73885-1.39616,2.36077-2.46654s.935-2.37346,.935-3.91346c0-1.595-.34693-2.94462-1.04077-4.04884-.69385-1.10423-1.72193-1.94616-3.09269-2.52577-1.37077-.57961-3.09269-.87154-5.16154-.87154h-11.57961V30.94385h11.47384c2.39038,0,4.33231-.36385,5.82154-1.09154,1.48923-.72769,2.57654-1.74307,3.26193-3.05462,.68538-1.30731,1.02807-2.82192,1.02807-4.54385,0-1.81923-.35538-3.26615-1.07038-4.34077s-1.60347-1.85308-2.67385-2.34385m-4.86961-10.75038c.77423,.27077,1.36231,.69385,1.76,1.26923s.59654,1.32846,.59654,2.26769c0,1.38346-.47808,2.46654-1.43846,3.24077-.95615,.77423-2.36077,1.16346-4.20539,1.16346h-4.40846V4.40846h4.88654c1.09999,0,2.03499,.13962,2.80922,.41039m1.54423,20.50654c-.96461,.81231-2.34384,1.21846-4.13346,1.21846h-5.09808v-9.40078h4.72154c.85462,0,1.64154,.08885,2.36077,.275,.71923,.18192,1.34962,.46539,1.88693,.85038,.53731,.385,.95615,.88,1.25654,1.48923s.4527,1.33269,.4527,2.17039c0,1.45539-.48231,2.58501-1.44693,3.39731M84.94539,4.40846V13.57654h10.91116v4.42539h-10.91116v12.94616h-5.49577V.00423h18.27269V4.40847h-12.77692Z"></path><path class="uuid-dce0615b-be24-4168-a75a-ff39dbc2608e" d="M53.48961,37.47615h7.01462v1.46808h-2.58923v8.84653h-1.84462v-8.84654h-2.58077v-1.46807Zm21.30193,1.78961c.37654-.275,.80808-.41039,1.30308-.41039,.41461,0,.77423,.08461,1.07885,.25385,.30462,.16923,.54577,.40192,.73192,.69385s.30039,.61346,.35538,.96884c.01692,.14384,.02962,.28346,.02962,.41885h1.85308c0-.26654-.03385-.54577-.10577-.83769-.11-.50346-.33-.98577-.65577-1.44692s-.76154-.83769-1.30731-1.13384-1.20154-.44-1.97154-.44c-.92654,0-1.71769,.22423-2.37346,.67693s-1.155,1.07461-1.49769,1.87423c-.34269,.79539-.51193,1.71769-.51193,2.75423s.16923,1.95038,.51193,2.75c.34269,.79539,.84193,1.42153,1.49769,1.87846,.65577,.45692,1.44692,.68115,2.37346,.68115,.68538,0,1.28192-.11846,1.78961-.35115s.93077-.54154,1.26077-.92654c.33423-.385,.57961-.80384,.74461-1.25654,.16077-.4527,.24539-.89692,.24539-1.33692h-1.85308c0,.30885-.04654,.60077-.14384,.87999-.09731,.27923-.23692,.52885-.42308,.75308-.18615,.22-.41461,.39769-.68538,.52885s-.58385,.19461-.935,.19461c-.495,0-.93077-.13961-1.30308-.41884s-.66846-.70231-.88423-1.265-.32154-1.26923-.32154-2.11115c0-.85462,.10577-1.56115,.32154-2.11961,.20731-.56271,.49923-.97733,.87577-1.25232m14.14346,2.64846h-4.02769v-4.44231h-1.84462v10.31461h1.84462v-4.40423h4.02769v4.40423h1.84462v-10.31462h-1.84462v4.44231Zm11.42731,4.43384l-3.49462-8.87615h-2.88962v10.31461h1.78961v-8.8l3.46077,8.8h2.93192v-10.31462h-1.79808v8.87616h.00001Zm13.31-5.99076c.22847,.65577,.33846,1.41308,.33846,2.26769s-.11423,1.60769-.34269,2.26769-.54577,1.21846-.95616,1.67116c-.40615,.4527-.88423,.79962-1.42577,1.03231s-1.12539,.35115-1.75577,.35115c-.62616,0-1.20577-.11846-1.74731-.35115s-1.01538-.57538-1.42153-1.03231c-.40615-.45692-.72346-1.01116-.95192-1.67116-.22423-.66-.33846-1.41731-.33846-2.26769,0-.85462,.11423-1.60769,.33846-2.26769s.54154-1.21,.94769-1.66269c.40615-.44846,.87999-.79115,1.42153-1.01962,.54577-.23269,1.12539-.34693,1.75154-.34693,.63462,0,1.2227,.11423,1.76424,.34693,.54154,.22846,1.01538,.57116,1.42153,1.01962,.41462,.44845,.73193,1.00269,.95616,1.66269m-1.53999,2.26346c0-.89692-.11846-1.62039-.35115-2.17039-.23269-.55423-.54577-.95615-.935-1.21423-.39346-.25808-.82923-.385-1.30731-.385-.46961,0-.90539,.12692-1.29885,.385-.39346,.25385-.70654,.66-.94347,1.21423s-.35115,1.27769-.35115,2.17039,.11846,1.62038,.35115,2.18308c.23692,.55846,.54999,.96885,.94347,1.23116s.82501,.38924,1.29885,.38924c.48654,0,.9223-.13115,1.31576-.39346s.70231-.67269,.935-1.23539c.22422-.55846,.34269-1.28192,.34269-2.17462m20.94653-2.26346c.22423,.65577,.33846,1.41308,.33846,2.26769s-.11423,1.60769-.34269,2.26769-.54577,1.21846-.95616,1.67116-.88423,.79962-1.42153,1.03231c-.54154,.23269-1.12539,.35115-1.75577,.35115-.62616,0-1.20577-.11846-1.74731-.35115s-1.01538-.57538-1.42153-1.03231c-.40615-.45692-.72346-1.01116-.95192-1.67116-.22423-.66-.33846-1.41731-.33846-2.26769,0-.85462,.11423-1.60769,.33846-2.26769s.54154-1.21,.94769-1.66269c.40615-.44846,.87999-.79115,1.42153-1.01962,.54154-.23269,1.12539-.34693,1.75154-.34693,.63462,0,1.2227,.11423,1.76424,.34693,.54154,.22846,1.01538,.57116,1.42153,1.01962,.41039,.44845,.72346,1.00269,.95192,1.66269m-1.53999,2.26346c0-.89692-.11846-1.62039-.35115-2.17039-.23269-.55423-.54577-.95615-.93923-1.21423s-.82923-.385-1.30731-.385c-.46961,0-.90539,.12692-1.29885,.385-.39346,.25385-.70654,.66-.94347,1.21423s-.35115,1.27769-.35115,2.17039,.11846,1.62038,.35115,2.18308c.23692,.55846,.54999,.96885,.94347,1.23116s.82501,.38924,1.29885,.38924c.48654,0,.9223-.13115,1.31576-.39346,.38924-.26231,.70231-.67269,.935-1.23539,.22847-.55846,.34693-1.28192,.34693-2.17462m12.00269-4.05308c-.30462-.36385-.70231-.66-1.18885-.89269s-1.07884-.34693-1.78115-.34693c-.84192,0-1.60769,.20731-2.28885,.62615-.68115,.41885-1.2227,1.02385-1.62461,1.815-.40193,.79115-.60077,1.75577-.60077,2.88961,0,1.12962,.19461,2.08577,.57961,2.8727,.38924,.78692,.90961,1.38769,1.56115,1.79808,.65576,.41039,1.38346,.61347,2.18731,.61347,.46961,0,.87577-.05077,1.21423-.1523s.61769-.22423,.8377-.37231c.22-.14808,.38924-.29192,.5077-.43577s.19461-.25807,.22847-.34269l.1523,1.14653h1.06193v-5.07692h-3.85422v1.38346h2.20423v.80384c-.04653,.22847-.15654,.46115-.33423,.69807-.17346,.23692-.41884,.43577-.72769,.59654s-.69807,.23692-1.16346,.23692c-.34693,0-.67269-.06769-.98154-.2073s-.58385-.35538-.82501-.65154c-.24116-.30038-.43153-.68962-.57116-1.1677-.13961-.48231-.2073-1.06193-.2073-1.74731,0-.90538,.1227-1.63731,.37231-2.19154,.24961-.55846,.57538-.96461,.97731-1.21846s.8377-.385,1.29885-.385c.33846,0,.63885,.055,.89692,.16923,.25807,.11,.46961,.26231,.64307,.4527,.17346,.19038,.30038,.40192,.385,.63462s.12692,.46962,.12692,.715v.08462h1.78962v-.08462c0-.34693-.06769-.71923-.2073-1.11692-.14386-.4019-.36385-.7869-.66847-1.14652m8.49116-1.09153l-1.90808,4.84-1.91654-4.84h-1.95038l2.93615,6.74808v3.56654h1.84884v-3.56654l2.9573-6.74808h-1.96731Zm-88.73193,0v10.31461h6.05423v-1.46808h-4.20115v-2.97423h3.42693v-1.46808h-3.42693v-2.93615h4.20115v-1.46808h-6.05423Zm55.47384,8.78732v-8.79154h-1.84461v10.31462h5.75385v-1.52308h-3.90924Z"></path></svg> 